<svg width="1024" height="1024" viewBox="0 0 1024 1024" fill="none" xmlns="http://www.w3.org/2000/svg">
<g clip-path="url(#clip0_1_22937)">
<rect width="1024" height="1024" fill="#9B1C31"/>
<g clip-path="url(#clip1_1_22937)">
<path d="M279.58 611.999C279.238 611.912 278.889 611.852 278.537 611.819C267.911 611.57 259.096 607.295 251.764 599.723C246.789 594.599 242.898 588.678 239.356 582.509C234.522 573.88 230.156 564.997 226.277 555.897C222.329 546.849 218.567 537.801 214.608 528.753C211.018 520.349 206.397 512.428 200.852 505.172C197.084 500.337 192.86 495.971 187.772 492.504C183.853 489.835 179.656 487.805 174.924 487.07C174.129 486.946 173.323 486.906 172.415 486.821V484.418C173.063 484.378 173.718 484.327 174.377 484.31C180.731 484.07 187.062 483.424 193.333 482.376C199.058 481.443 203.282 478.418 206.548 473.781C209.106 470.09 210.813 465.875 211.545 461.442C213.146 452.935 213.079 444.198 211.348 435.717C210.636 432.257 209.359 428.938 207.569 425.895C203.677 419.341 197.834 415.614 190.44 414.285C188.176 413.896 185.884 413.694 183.588 413.68C177.902 413.601 172.223 413.68 166.538 413.68H165.038V558.356C168.495 558.52 171.901 558.407 175.308 558.43C178.715 558.453 182.155 558.43 185.663 558.43V560.856H118.073V558.515C118.592 558.481 119.111 558.413 119.624 558.413H138.738V413.736C135.315 413.601 131.908 413.691 128.502 413.674C125.095 413.657 121.672 413.674 118.135 413.674L118 411.005H190.807C191.512 411.096 192.217 411.22 192.922 411.265C200.739 411.752 208.42 412.928 215.826 415.58C220.224 417.105 224.333 419.365 227.98 422.264C234.13 427.086 238.154 434.129 239.192 441.887C240.048 447.667 239.871 453.553 238.668 459.27C237.156 466.503 233.236 472.175 227.286 476.473C223.017 479.549 218.223 481.472 213.186 482.834C208.347 484.117 203.404 484.963 198.415 485.362C197.479 485.441 196.543 485.566 195.595 485.73C198.463 485.982 201.297 486.525 204.055 487.353C209.622 489.165 214.678 492.282 218.804 496.446C222.665 500.321 226.071 504.626 228.956 509.277C233.356 516.323 237.326 523.629 240.845 531.156C245.588 540.996 250.224 550.892 254.979 560.726C258.464 568.132 262.656 575.182 267.494 581.779C270.756 586.286 274.637 590.307 279.022 593.723C283.229 596.895 287.849 599.134 293.122 599.943C297.604 600.572 302.169 600.197 306.489 598.846C311.232 597.383 315.76 595.291 319.951 592.626C323.64 590.364 327.283 588.005 330.938 585.693L332.213 584.89L333.442 586.445C333.335 586.609 333.296 586.744 333.2 586.818C327.492 591.087 321.971 595.611 315.908 599.389C308.722 603.873 301.244 607.679 293.026 609.947C289.08 611.082 285.009 611.719 280.906 611.841C280.558 611.879 280.213 611.941 279.874 612.028L279.58 611.999Z" fill="white"/>
<path d="M303.94 411V497.255L304.154 497.312C304.273 496.876 304.391 496.452 304.504 496.017C305.504 491.982 306.916 488.061 308.717 484.317C310.389 480.9 312.617 477.786 315.31 475.105C319.236 471.038 324.391 468.382 329.974 467.55C336.093 466.534 342.358 466.862 348.338 468.511C355.495 470.575 360.244 475.218 362.489 482.371C363.888 486.951 364.58 491.719 364.542 496.509C364.542 516.489 364.542 536.47 364.542 556.451V558.363H377.514C377.548 558.928 377.582 559.324 377.582 559.72C377.582 560.116 377.536 560.427 377.508 560.851H329.726C329.692 560.472 329.647 560.087 329.625 559.72C329.602 559.352 329.625 559.007 329.625 558.498C333.324 558.295 336.957 558.498 340.64 558.374C340.697 558.052 340.737 557.727 340.758 557.401C340.758 536.246 340.758 515.085 340.69 493.93C340.769 489.722 340.329 485.521 339.382 481.421C338.977 479.853 338.398 478.336 337.656 476.897C336.302 474.239 333.928 473.024 331.035 472.893C325.536 472.645 320.623 474.155 316.517 477.983C313.492 480.846 311.078 484.296 309.422 488.122C307.046 493.599 305.47 499.391 304.741 505.319C304.143 510.026 303.872 514.769 303.929 519.513C303.957 531.903 303.929 544.287 303.929 556.677V558.374H314.961V560.732C314.03 560.987 269.389 561.094 267.021 560.828V558.43H279.863V413.663C278.464 413.533 277.043 413.624 275.616 413.607C274.189 413.59 272.796 413.607 271.425 413.607H267.004C266.942 412.651 266.88 411.814 266.823 410.977L303.94 411Z" fill="white"/>
<path d="M541.841 411C541.841 411.633 541.88 412.267 541.88 412.894C541.88 441.169 541.88 469.425 541.88 497.662V499.15L542.055 499.189C542.168 498.737 542.303 498.29 542.393 497.838C543.521 492.324 545.213 487.008 548.09 482.117C550.724 477.593 554.079 473.742 558.608 471.033C563.786 467.945 569.426 466.984 575.382 467.284C593.706 468.307 607.704 481.568 612.724 497.922C614.659 504.205 615.217 510.669 615.025 517.212C614.856 523.121 614.038 528.934 611.912 534.47C607.293 546.516 599.38 555.496 587.237 560.314C580.596 563.051 573.281 563.692 566.267 562.152C561.307 561.039 556.79 558.467 553.295 554.766C549.026 550.372 546.2 545.107 544.328 539.322C543.561 536.964 543.042 534.527 542.405 532.129C542.321 531.684 542.14 531.263 541.874 530.897V560.868H505.051V558.431H517.921V413.703C516.506 413.567 515.101 413.658 513.658 413.641C512.214 413.624 510.838 413.641 509.461 413.641H505.028V411H541.841ZM587.716 515.119C587.768 509.426 587.444 503.736 586.746 498.086C586.239 493.639 585.24 489.261 583.768 485.035C582.533 481.642 580.948 478.492 578.382 475.885C575.224 472.628 571.343 471.282 566.865 471.599C563.203 471.894 559.698 473.223 556.758 475.433C553.551 477.8 550.878 480.82 548.913 484.294C545.067 490.837 543.149 497.985 542.388 505.483C541.847 510.791 541.76 516.136 542.128 521.458C542.408 526.879 543.406 532.238 545.095 537.394C546.928 542.687 549.381 547.647 553.312 551.735C556.307 554.851 559.815 557.186 564.09 558.142C570.717 559.624 576.228 557.639 580.114 552.154C580.866 551.083 581.543 549.96 582.138 548.795C584.298 544.57 585.421 540.018 586.222 535.375C587.289 528.679 587.789 521.905 587.716 515.125V515.119Z" fill="white"/>
<path d="M905.57 550.677C903.055 555.71 898.938 558.945 893.8 560.856C886.783 563.567 879.038 563.709 871.928 561.257C865.724 559.154 862.278 554.675 861.714 548.104C861.522 545.904 861.584 543.682 861.539 541.471C861.539 540.979 861.539 540.487 861.539 539.995L861.268 539.938C861.144 540.374 861.02 540.809 860.89 541.244C859.528 546.141 857.031 550.646 853.603 554.392C849.091 559.21 843.491 561.846 836.988 562.603C831.468 563.32 825.86 562.859 820.53 561.252C817.854 560.427 815.331 559.166 813.063 557.519C807.327 553.346 804.366 547.64 803.842 540.622C803.551 537.373 803.846 534.098 804.71 530.952C806.119 526.145 809.056 521.931 813.074 518.953C817.428 515.56 822.403 513.53 827.699 512.167C834.018 510.644 840.5 509.906 846.999 509.967C851.28 509.967 855.566 509.967 859.852 509.967H861.415C861.485 509.605 861.532 509.238 861.556 508.87C861.556 504.578 861.607 500.28 861.449 495.993C861.35 491.6 860.733 487.235 859.61 482.987C858.896 480.46 857.751 478.076 856.226 475.941C853.891 472.639 850.648 470.902 846.711 470.365C841.714 469.681 836.824 470.433 831.98 471.592C829.259 472.248 826.623 473.216 824.123 474.476C823.532 474.785 822.981 475.165 822.482 475.607C824.559 475.433 826.651 475.576 828.686 476.031C830.485 476.449 832.201 477.168 833.762 478.158C835.309 479.064 836.599 480.353 837.509 481.901C838.418 483.449 838.917 485.206 838.956 487.002C839.025 488.447 838.927 489.895 838.663 491.317C838.423 492.749 837.883 494.115 837.081 495.324C836.278 496.533 835.23 497.559 834.004 498.335C831.889 499.78 829.47 500.718 826.935 501.075C824.399 501.432 821.816 501.199 819.386 500.393C813.7 498.657 810.598 494.059 810.762 488.082C810.839 484.247 812.408 480.595 815.133 477.903C817.953 474.991 821.371 473.023 825.076 471.513C830.456 469.396 836.121 468.098 841.883 467.662C846.918 467.231 851.984 467.33 856.999 467.956C861.409 468.522 865.701 469.483 869.7 471.491C877.162 475.24 881.882 481.194 883.952 489.287C884.886 492.968 885.353 496.753 885.34 500.551C885.34 516.917 885.34 533.279 885.34 549.636C885.301 551.45 885.661 553.249 886.394 554.907C886.725 555.656 887.24 556.308 887.891 556.803C888.543 557.297 889.308 557.618 890.117 557.734C891.762 558.063 893.468 557.902 895.024 557.271C898.654 555.907 901.69 553.304 903.596 549.919C903.839 549.495 904.087 549.077 904.397 548.534C904.865 549.133 905.243 549.631 905.621 550.123L905.57 550.677ZM861.494 512.223C860.433 512.223 859.542 512.223 858.674 512.223C855.205 512.297 851.731 512.223 848.279 512.489C845.06 512.7 841.973 513.855 839.402 515.808C836.061 518.31 833.494 521.707 831.997 525.609C829.732 531.463 829.322 537.874 830.823 543.97C831.375 546.676 832.506 549.228 834.14 551.452C836.621 554.709 839.938 555.874 843.903 555.461C847.568 555.056 850.973 553.368 853.519 550.694C855.832 548.27 857.625 545.397 858.787 542.251C860.783 537.28 861.466 532.072 861.539 526.745C861.601 522.363 861.573 517.98 861.584 513.603C861.578 513.185 861.522 512.789 861.494 512.223Z" fill="white"/>
<path d="M396.277 471.56H383.339V469.128H420.27V532.017C420.18 536.807 420.472 541.597 421.144 546.341C421.456 548.209 421.96 550.04 422.65 551.804C424.048 555.4 426.846 557.097 430.653 557.142C436.496 557.21 441.499 555.259 445.576 550.984C448.419 547.936 450.665 544.379 452.198 540.499C454.263 535.336 455.653 529.926 456.332 524.405C456.906 519.785 457.168 515.132 457.116 510.477C457.082 498.093 457.116 485.708 457.116 473.324V471.582H443.822V469.122H480.995V558.375C485.344 558.51 489.557 558.375 493.872 558.459V560.755C492.947 561.01 459.321 561.1 457.116 560.823C457.087 557.713 457.116 554.569 457.116 551.425C457.116 548.28 457.116 545.097 457.116 541.93V532.452L456.935 532.418C456.817 532.831 456.676 533.238 456.574 533.657C455.538 538.379 453.882 542.943 451.651 547.229C448.633 552.81 444.414 557.238 438.679 560.088C435.371 561.67 431.785 562.584 428.126 562.78C422.932 563.153 417.748 562.978 412.706 561.507C405.51 559.415 400.693 554.801 398.386 547.613C396.925 542.852 396.215 537.891 396.283 532.91C396.279 513.088 396.277 493.25 396.277 473.397V471.56Z" fill="white"/>
<path d="M689.359 539.803C689.173 540.368 688.987 540.985 688.795 541.584C687.655 545.544 685.776 549.252 683.257 552.509C681.121 555.299 678.447 557.629 675.394 559.359C672.34 561.09 668.97 562.185 665.485 562.581C659.796 563.42 653.991 562.969 648.498 561.263C642.48 559.324 637.635 555.829 634.533 550.191C632.316 546.159 631.611 541.765 631.769 537.224C632.057 528.951 635.717 522.521 642.513 517.89C645.208 516.067 648.127 514.606 651.199 513.541C655.687 512.012 660.334 511.001 665.051 510.527C672.513 509.679 680.003 510.08 687.487 509.961C688.113 509.961 688.739 509.961 689.461 509.961C689.527 509.588 689.568 509.21 689.585 508.83C689.512 503.956 689.534 499.07 689.32 494.195C689.195 490.262 688.579 486.36 687.487 482.58C686.775 480.242 685.696 478.034 684.289 476.037C681.914 472.644 678.598 470.869 674.56 470.343C669.647 469.698 664.848 470.433 660.088 471.553C657.364 472.195 654.725 473.158 652.226 474.42C651.595 474.722 651.03 475.144 650.562 475.664L651.368 475.613C655.549 475.231 659.717 476.465 663.02 479.063C664.15 479.942 665.078 481.052 665.745 482.32C666.411 483.588 666.799 484.984 666.884 486.414C667.105 488.441 666.933 490.492 666.376 492.454C665.743 494.693 664.364 496.647 662.468 497.99C657.803 501.298 652.665 502.107 647.291 500.348C640.833 498.239 638.131 493.161 638.831 486.51C639.27 482.467 641.374 479.34 644.33 476.699C647.522 473.871 651.284 472.039 655.271 470.659C662.21 468.321 669.504 467.219 676.822 467.402C681.922 467.384 687.003 468.021 691.942 469.297C696.623 470.554 700.93 472.929 704.497 476.218C708.496 479.9 710.701 484.593 712.038 489.751C712.928 493.305 713.358 496.96 713.318 500.625C713.318 516.896 713.327 533.168 713.346 549.439C713.328 550.792 713.487 552.142 713.82 553.454C714.711 556.751 717.046 558.261 720.441 557.836C721.468 557.707 722.474 557.441 723.431 557.045C726.901 555.661 729.785 553.113 731.592 549.835C731.789 549.484 732.009 549.145 732.223 548.8C732.223 548.8 732.308 548.8 732.505 548.743L733.712 550.281C732.506 552.98 730.656 555.339 728.326 557.152C725.163 559.657 721.451 561.37 717.497 562.151C711.833 563.412 705.939 563.17 700.397 561.45C695.659 559.94 692.196 556.977 690.527 552.176C689.865 550.199 689.54 548.125 689.568 546.04V539.82L689.359 539.803ZM689.517 512.28C689.184 512.246 689.004 512.206 688.829 512.206C685.496 512.206 682.157 512.167 678.824 512.206C676.475 512.215 674.143 512.617 671.926 513.394C666.224 515.469 662.502 519.615 660.189 525.066C657.369 531.778 657.268 538.638 659.247 545.627C659.94 548.214 661.262 550.588 663.094 552.538C664.438 553.956 666.195 554.914 668.113 555.275C669.983 555.64 671.91 555.58 673.753 555.099C677.983 554.064 681.198 551.565 683.669 548.048C685.313 545.669 686.595 543.058 687.47 540.3C688.964 535.776 689.466 531.128 689.562 526.423C689.653 522.086 689.596 517.748 689.596 513.417C689.591 513.083 689.557 512.732 689.517 512.28Z" fill="white"/>
<path d="M753.942 471.565H741.111V469.122H777.963V558.352C782.306 558.539 786.525 558.352 790.834 558.476C790.834 558.94 790.907 559.336 790.913 559.726C790.918 560.116 790.873 560.439 790.845 560.857H741.106C741.106 560.444 741.027 560.054 741.021 559.664C741.016 559.274 741.021 558.951 741.078 558.414H753.942V471.565Z" fill="white"/>
<path d="M789.296 434.57C784.287 437.398 779.482 440.225 775.495 444.24C771.507 448.255 768.727 453 766.065 458.106C765.783 457.637 765.574 457.315 765.382 456.975C764.226 454.99 763.126 452.966 761.908 451.015C758.687 445.859 754.304 441.534 749.111 438.388C747.041 437.115 744.915 435.933 742.692 434.638L743.719 434.005C746.082 432.597 748.496 431.274 750.791 429.764C755.28 426.784 759.071 422.864 761.902 418.273C763.104 416.361 764.158 414.377 765.314 412.426C765.534 412.052 765.737 411.668 766.11 410.995C770.983 421.886 778.67 429.662 789.296 434.57Z" fill="white"/>
</g>
</g>
<defs>
<clipPath id="clip0_1_22937">
<rect width="1024" height="1024" fill="white"/>
</clipPath>
<clipPath id="clip1_1_22937">
<rect width="787.592" height="201" fill="white" transform="translate(118 411)"/>
</clipPath>
</defs>
</svg>
